<?xml version="1.0" encoding="UTF-8"?>
<svg id="Capa_1" data-name="Capa 1" xmlns="http://www.w3.org/2000/svg" viewBox="0 0 927.72 746.62">
  <defs>
    <style>
      .cls-1 {
        fill: #005b96;
        opacity: .67;
      }

      .cls-2 {
        stroke: #004980;
        stroke-miterlimit: 10;
        stroke-width: 3px;
      }

      .cls-2, .cls-3 {
        fill: #004980;
      }

      .cls-4 {
        fill: #454443;
        font-family: Roboto-Black, Roboto;
        font-size: 111.1px;
        font-variation-settings: 'wght' 900, 'wdth' 100;
        font-weight: 800;
      }

      .cls-5 {
        letter-spacing: -.02em;
      }

      .cls-6 {
        letter-spacing: 0em;
      }

      .cls-7 {
        fill: #e32829;
      }

      .cls-8 {
        fill: #e63738;
      }
    </style>
  </defs>
  <path class="cls-1" d="M667.92,147.6c-28.81,6.26-48.84-2.34-69.87-22.57C453.26-14.29,207.27,16.2,94.31,185.9c-127.42,191.44-32.86,449.03,188.7,510.54,118.8,32.98,224.8,4.55,316.97-76.09,28.54-24.97,27.71-25.93,66.53-22.22-51.12,84.51-190.07,165.34-339.83,145.43C146.18,719.57,14.05,580.39,.92,395.26-10.93,228.11,92.4,71.21,260.12,17.69c167.32-53.39,332.11,21.08,407.8,129.91Z"/>
  <g>
    <g>
      <path class="cls-3" d="M544.73,411.5H16.62c-2.28,0-4.13,1.85-4.13,4.13v64.13c0,15.54,13.35,28.2,28.79,26.44,.54-.06,1.08-.14,1.63-.23,14.38-2.47,24.54-15.54,24.33-30.13l-.54-38.1c-.03-2.16,1.69-3.95,3.86-3.99l35.85-.68c2.23-.04,4.06,1.74,4.08,3.97l.73,87.97c.07,8.02,5.78,15.13,13.72,16.29,1.47,.22,3.03,.23,4.65-.02,7.67-1.2,13.11-8.19,13.11-15.96v-89.23c0-2.17,1.75-3.92,3.92-3.93l398.1-.81c2.36,0,4.26-1.92,4.26-4.27v-11.34c0-2.34-1.9-4.23-4.23-4.23Z"/>
      <path class="cls-3" d="M610.11,411.5h-43.98c-3,0-5.44,2.43-5.44,5.44v54.26c0,1.27,1.03,2.3,2.3,2.3h6.05c1.42,0,2.74-.71,3.52-1.89,3.28-4.96,13.62-17.12,30.2-4.46,1.19,.91,2.65,1.39,4.15,1.39h5.23c1.71,0,3.1-1.39,3.1-3.1v-48.79c0-2.84-2.3-5.14-5.14-5.14Z"/>
      <path class="cls-3" d="M637.7,411.5h-6.87c-2.19,0-3.96,1.77-3.96,3.94v43.76s.82,24.21-26.3,24.21c-27.12,0-50.13,0-50.13,0H144.08c-2.19,0-3.96,1.77-3.96,3.94v6.44c0,2.18,1.77,3.94,3.96,3.94h456.23s19.57,1.04,32.75-16.85c5.76-7.81,8.61-17.37,8.61-27.05v-38.4c0-2.18-1.77-3.94-3.96-3.94Z"/>
      <path class="cls-3" d="M647.76,415.15v12.1c0,2.26,1.83,4.09,4.09,4.09h58.25c2.4,0,4.34-1.95,4.34-4.34v-6.34c0-2.01,1.63-3.65,3.64-3.65l192.55-.54v-4.96s-259.22,0-259.22,0c-2.01,0-3.65,1.63-3.65,3.65Z"/>
    </g>
    <g>
      <line class="cls-2" x1="184.51" y1="447.36" x2="184.51" y2="483.77"/>
      <line class="cls-2" x1="199.39" y1="458.65" x2="199.39" y2="483.77"/>
      <line class="cls-2" x1="229.15" y1="458.65" x2="229.15" y2="483.77"/>
      <line class="cls-2" x1="214.27" y1="458.65" x2="214.27" y2="483.77"/>
      <line class="cls-2" x1="244.03" y1="447.36" x2="244.03" y2="483.77"/>
      <line class="cls-2" x1="303.55" y1="447.36" x2="303.55" y2="483.77"/>
      <line class="cls-2" x1="363.07" y1="447.36" x2="363.07" y2="483.77"/>
      <line class="cls-2" x1="422.59" y1="447.36" x2="422.59" y2="483.77"/>
      <line class="cls-2" x1="258.91" y1="458.65" x2="258.91" y2="483.77"/>
      <line class="cls-2" x1="496.95" y1="458.65" x2="496.95" y2="483.77"/>
      <line class="cls-2" x1="496.95" y1="458.65" x2="496.95" y2="483.77"/>
      <line class="cls-2" x1="496.95" y1="458.65" x2="496.95" y2="483.77"/>
      <line class="cls-2" x1="496.95" y1="458.65" x2="496.95" y2="483.77"/>
      <line class="cls-2" x1="467.22" y1="458.65" x2="467.22" y2="483.77"/>
      <line class="cls-2" x1="452.34" y1="458.65" x2="452.34" y2="483.77"/>
      <line class="cls-2" x1="437.47" y1="458.65" x2="437.47" y2="483.77"/>
      <line class="cls-2" x1="407.71" y1="458.65" x2="407.71" y2="483.77"/>
      <line class="cls-2" x1="392.83" y1="458.65" x2="392.83" y2="483.77"/>
      <line class="cls-2" x1="377.95" y1="458.65" x2="377.95" y2="483.77"/>
      <line class="cls-2" x1="348.19" y1="458.65" x2="348.19" y2="483.77"/>
      <line class="cls-2" x1="333.31" y1="458.65" x2="333.31" y2="483.77"/>
      <line class="cls-2" x1="318.43" y1="458.65" x2="318.43" y2="483.77"/>
      <line class="cls-2" x1="288.67" y1="458.65" x2="288.67" y2="483.77"/>
      <line class="cls-2" x1="273.79" y1="458.65" x2="273.79" y2="483.77"/>
      <line class="cls-2" x1="482.1" y1="447.35" x2="482.1" y2="483.77"/>
      <line class="cls-2" x1="526.64" y1="458.65" x2="526.64" y2="483.77"/>
      <line class="cls-2" x1="511.79" y1="458.65" x2="511.79" y2="483.77"/>
      <line class="cls-2" x1="511.79" y1="458.65" x2="511.79" y2="483.77"/>
      <line class="cls-2" x1="511.79" y1="458.65" x2="511.79" y2="483.77"/>
      <line class="cls-2" x1="511.79" y1="458.65" x2="511.79" y2="483.77"/>
    </g>
  </g>
  <text class="cls-4" transform="translate(69.22 373.31)"><tspan x="0" y="0">Insulinote</tspan><tspan class="cls-5" x="500.94" y="0">r</tspan><tspan class="cls-6" x="540.87" y="0">apia</tspan></text>
  <g>
    <path class="cls-7" d="M908.38,431.52c-2.77,15.11,2.81,26.73,11.11,37.58,4.17,5.45,7.01,11.6,7.91,18.53,1.59,12.24-2.74,21.95-12.82,28.86-8.94,6.13-18.62,6.63-27.93,1.13-10.41-6.13-15.17-15.77-14.38-27.8,.64-9.79,4.37-18.67,9.44-26.96,7.05-11.52,15.59-21.81,26.67-31.34Zm-18.38,26.99c-.33,.32-.75,.61-1.04,1.01-7.15,9.83-11.94,20.51-11.81,32.94,.02,1.8,.73,3.27,2.86,3.43,2.05,.15,3.15-1.02,3.44-2.86,.39-2.52,.46-5.09,.82-7.61,1.22-8.54,2.49-17.08,6.38-24.93,.45-.92,.85-1.62-.65-1.97Z"/>
    <path class="cls-8" d="M890,458.52c1.5,.36,1.1,1.06,.65,1.97-3.89,7.85-5.16,16.39-6.38,24.93-.36,2.53-.44,5.09-.82,7.61-.28,1.84-1.38,3.01-3.44,2.86-2.12-.16-2.84-1.63-2.86-3.43-.13-12.43,4.66-23.11,11.81-32.94,.29-.4,.71-.69,1.04-1.01Z"/>
  </g>
</svg>